<?xml version="1.0" encoding="utf-8"?>
<!-- Generator: Adobe Illustrator 23.0.1, SVG Export Plug-In . SVG Version: 6.00 Build 0)  -->
<svg version="1.1" id="Layer_1" xmlns="http://www.w3.org/2000/svg" xmlns:xlink="http://www.w3.org/1999/xlink" x="0px" y="0px"
	 viewBox="0 0 121 43.9" style="enable-background:new 0 0 121 43.9;" xml:space="preserve">
<style type="text/css">
	.st0{fill:#FD5329;}
	.st1{fill:#FFFFFF;}
</style>
<path class="st0" d="M43.9,0L0,0.1v43.9h43.9L43.9,0z M20.4,40.8H3.1V3.1h17.2v4.7H7.8v28.2h12.6L20.4,40.8z M28.2,20.4H11V11h17.3
	c2.6,0,4.7,2.2,4.6,4.8C32.8,18.3,30.8,20.3,28.2,20.4z M32.9,28.2v4.7H11v-9.4h17.3C30.8,23.5,32.9,25.6,32.9,28.2
	C32.9,28.2,32.9,28.2,32.9,28.2L32.9,28.2z M40.8,40.8H23.5v-4.7h12.6v-7.8c0-2.5-1.2-4.8-3.1-6.3l0,0c3.5-2.6,4.2-7.5,1.6-11
	c-1.5-2-3.8-3.1-6.3-3.1h-4.7V3.1h17.2L40.8,40.8z"/>
<g transform="translate(53.667 7.391)">
	<path class="st1" d="M5.2,0.5c2.2,0,3.7,1.3,3.7,3.1c0,1.2-0.7,2.2-1.8,2.7c1.4,0.4,2.4,1.6,2.3,3c0,1.9-1.6,3.3-4,3.3H0V0.5H5.2z
		 M4.8,5.6c1,0.2,1.9-0.5,2.1-1.5S6.4,2.2,5.4,2.1C5.2,2,5,2,4.8,2.1H2v3.6H4.8z M2,11.1h3.2c1.1,0.2,2.1-0.6,2.3-1.7
		c0.2-1.1-0.6-2.1-1.7-2.3c-0.2,0-0.4,0-0.6,0H2V11.1z"/>
	<path class="st1" d="M14.1,1.2c0,0.7-0.6,1.3-1.2,1.3S11.6,2,11.5,1.3c0-0.7,0.6-1.3,1.2-1.3c0,0,0,0,0,0C13.5,0,14,0.5,14.1,1.2
		C14.1,1.2,14.1,1.2,14.1,1.2z M11.8,3.7h1.9v8.9h-1.9V3.7z"/>
	<path class="st1" d="M19.7,3.7h3.1v1.5h-3.1v4.3c0,1,0.5,1.5,1.3,1.5c0.5,0,1-0.1,1.5-0.2l0.2,1.6c-0.7,0.3-1.5,0.4-2.2,0.4
		c-1.4,0.1-2.7-0.9-2.8-2.3c0-0.2,0-0.3,0-0.5V5.3h-1.7V3.7h1.7V1.5h1.9V3.7z"/>
	<path class="st1" d="M32.4,11.2c-1.7,2-4.7,2.2-6.7,0.4c-1-0.9-1.6-2.1-1.6-3.4c0-2.6,2.1-4.7,4.7-4.6c0,0,0.1,0,0.1,0
		c1.3,0,2.5,0.5,3.4,1.5L31,6.3c-0.5-0.6-1.3-1-2.2-1c-1.6,0-2.8,1.3-2.8,2.9c0,1.5,1.3,2.8,2.8,2.8c0.9,0,1.7-0.4,2.2-1.1
		L32.4,11.2z"/>
	<path class="st1" d="M43.2,8.2c0,2.6-2.1,4.7-4.7,4.7c0,0-0.1,0-0.1,0c-2.5,0.1-4.6-1.9-4.7-4.4c0-0.1,0-0.1,0-0.2
		c0-2.6,2.1-4.7,4.7-4.6c0,0,0.1,0,0.1,0c2.5-0.1,4.6,1.9,4.7,4.4C43.2,8,43.2,8.1,43.2,8.2z M41.3,8.2c0-1.6-1.3-2.8-2.9-2.8
		c-1.6,0-2.8,1.3-2.8,2.9c0,1.6,1.3,2.8,2.8,2.8c1.5,0,2.8-1.2,2.8-2.8C41.3,8.3,41.3,8.2,41.3,8.2L41.3,8.2z"/>
	<path class="st1" d="M47.6,1.2c0,0.7-0.6,1.3-1.2,1.3c-0.7,0-1.3-0.6-1.3-1.2S45.6,0,46.3,0c0,0,0,0,0,0C47,0,47.6,0.5,47.6,1.2
		C47.6,1.2,47.6,1.2,47.6,1.2z M45.4,3.7h1.9v8.9h-1.9V3.7z"/>
	<path class="st1" d="M51.6,12.6h-1.9V3.7h1.7l0.1,1.5c0.6-1.1,1.8-1.8,3.1-1.7c1.9,0,3.4,1.3,3.4,3.8v5.2h-1.9V8
		c0-1.9-1-2.7-2.1-2.7c-1.3,0-2.4,0.8-2.4,2.9L51.6,12.6z"/>
	<path class="st1" d="M0,16.5h5.2c2.5,0,4.2,1.6,4.2,3.8c0,1.7-1.1,3.2-2.8,3.6l3.3,4.7H7.6l-3.1-4.5H2v4.5H0V16.5z M2,18.2v4.4h3
		c1.2,0.1,2.3-0.7,2.5-2s-0.7-2.3-2-2.5c-0.2,0-0.3,0-0.5,0H2z"/>
	<path class="st1" d="M12.9,24.5c0.1,1.5,1.4,2.7,2.9,2.7c1.1,0,2.1-0.5,2.7-1.3l1.2,1.1c-0.9,1.3-2.4,2-4,1.9
		c-2.5,0.1-4.6-1.9-4.7-4.4c0-0.1,0-0.1,0-0.2c0-2.6,2.1-4.7,4.6-4.7c0,0,0.1,0,0.1,0c2.4,0,4.4,1.9,4.4,4.3c0,0,0,0,0,0
		c0,0.2,0,0.4-0.1,0.6H12.9z M12.9,23.2h5.3C18,21.9,17,21,15.7,21C14.4,21,13.2,21.9,12.9,23.2z"/>
	<path class="st1" d="M28.4,26.1c0,1.5-1.2,2.7-3.4,2.7c-1.3,0-2.5-0.4-3.5-1.2l0.8-1.2c0.8,0.6,1.7,1,2.7,1c1,0,1.5-0.5,1.5-1.1
		c0-0.6-0.3-1.1-2.1-1.6c-1.6-0.5-2.5-1.4-2.5-2.6c0-1.3,1.1-2.5,3.3-2.5c1.1,0,2.2,0.4,3.1,1l-0.8,1.3c-0.6-0.5-1.4-0.8-2.2-0.8
		c-1,0-1.4,0.5-1.4,0.9c0,0.5,0.3,1,1.8,1.4C27.5,23.9,28.4,24.8,28.4,26.1z"/>
	<path class="st1" d="M32.2,24.5c0.1,1.5,1.4,2.7,2.9,2.7c1.1,0,2.1-0.5,2.7-1.3l1.2,1.1c-0.9,1.3-2.4,2-4,1.9
		c-2.5,0.1-4.6-1.9-4.7-4.4c0-0.1,0-0.1,0-0.2c0-2.6,2.1-4.7,4.6-4.7c0,0,0.1,0,0.1,0c2.4,0,4.4,1.9,4.4,4.3c0,0,0,0,0,0
		c0,0.2,0,0.4-0.1,0.6H32.2z M32.3,23.2h5.3C37.4,21.9,36.3,21,35,21C33.7,21,32.5,21.9,32.3,23.2z"/>
	<path class="st1" d="M41.6,19.7h1.7l0.1,1.9c0.6-1.3,2-2.2,3.5-2l0,1.9h-0.4c-1.8,0-3,1-3,3.3v3.8h-1.9L41.6,19.7z"/>
	<path class="st1" d="M48.6,19.7h2.1l2.5,6.5l2.5-6.5h2l-3.7,8.9h-1.9L48.6,19.7z"/>
	<path class="st1" d="M60.1,24.5c0.1,1.5,1.4,2.7,2.9,2.7c1.1,0,2.1-0.5,2.7-1.3l1.2,1.1c-0.9,1.3-2.4,2-4,1.9
		c-2.5,0.1-4.6-1.9-4.7-4.4c0-0.1,0-0.1,0-0.2c0-2.6,2.1-4.7,4.6-4.7c0,0,0.1,0,0.1,0c2.4,0,4.4,1.9,4.4,4.3c0,0,0,0,0,0
		c0,0.2,0,0.4-0.1,0.6H60.1z M60.2,23.2h5.3c-0.2-1.3-1.3-2.2-2.6-2.2C61.6,21,60.5,21.9,60.2,23.2z"/>
</g>
</svg>
